<svg width="424" height="302" viewBox="0 0 424 302" fill="none" xmlns="http://www.w3.org/2000/svg">
<rect width="423.494" height="302" rx="27.7701" fill="#03A168" fill-opacity="0.1"/>
<mask id="path-2-outside-1" maskUnits="userSpaceOnUse" x="95.6653" y="85.7645" width="147" height="141" fill="black">
<rect fill="white" x="95.6653" y="85.7645" width="147" height="141"/>
<path d="M117.143 197.15C117.143 210.163 127.692 220.712 140.705 220.712C153.718 220.712 164.267 210.163 164.267 197.15C164.267 184.137 153.718 173.588 140.705 173.588C127.692 173.588 117.143 184.137 117.143 197.15Z"/>
</mask>
<path d="M150.13 102.902L152.432 104.053L152.432 104.053L150.13 102.902ZM135.993 131.176L138.294 132.327C138.265 132.386 138.233 132.444 138.199 132.5L135.993 131.176ZM107.718 197.15L107.718 194.576H107.718V197.15ZM113.073 194.576C114.494 194.576 115.647 195.728 115.647 197.15C115.647 198.571 114.494 199.723 113.073 199.723V194.576ZM173.692 199.723C172.27 199.723 171.118 198.571 171.118 197.15C171.118 195.728 172.27 194.576 173.692 194.576V199.723ZM239.665 194.576C241.087 194.576 242.239 195.728 242.239 197.15C242.239 198.571 241.087 199.723 239.665 199.723V194.576ZM164.267 91.3381C161.825 91.3381 159.891 92.4535 158.001 94.6738C156.033 96.9862 154.344 100.228 152.432 104.053L147.828 101.751C149.685 98.0359 151.638 94.2088 154.082 91.3375C156.604 88.3742 159.854 86.191 164.267 86.191V91.3381ZM152.432 104.053L138.294 132.327L133.691 130.025L147.828 101.751L152.432 104.053ZM135.993 131.176C138.199 132.5 138.198 132.502 138.197 132.504C138.197 132.505 138.195 132.507 138.195 132.508C138.193 132.511 138.191 132.513 138.19 132.516C138.186 132.522 138.182 132.528 138.179 132.534C138.171 132.547 138.162 132.56 138.153 132.575C138.134 132.604 138.112 132.638 138.086 132.676C138.035 132.752 137.969 132.844 137.887 132.95C137.723 133.163 137.496 133.43 137.194 133.732C136.588 134.338 135.691 135.073 134.415 135.782C131.853 137.205 127.875 138.462 121.855 138.462V133.315C127.146 133.315 130.236 132.216 131.915 131.283C132.76 130.813 133.276 130.37 133.554 130.093C133.694 129.953 133.776 129.852 133.811 129.807C133.829 129.784 133.835 129.775 133.83 129.782C133.828 129.785 133.823 129.793 133.815 129.804C133.811 129.81 133.807 129.817 133.802 129.825C133.8 129.829 133.797 129.833 133.794 129.838C133.793 129.84 133.792 129.842 133.79 129.845C133.789 129.846 133.788 129.848 133.788 129.848C133.787 129.85 133.786 129.852 135.993 131.176ZM121.855 138.462C118.24 138.462 112.827 139.346 108.414 141.888C104.128 144.357 100.867 148.303 100.867 154.738H95.7198C95.7198 146.093 100.312 140.615 105.845 137.428C111.249 134.315 117.616 133.315 121.855 133.315V138.462ZM100.867 154.738V187.725H95.7198V154.738H100.867ZM100.867 187.725C100.867 189.085 101.659 190.825 103.139 192.304C104.619 193.784 106.358 194.576 107.718 194.576L107.718 199.723C104.58 199.723 101.607 198.052 99.4992 195.944C97.3912 193.836 95.7198 190.863 95.7198 187.725H100.867ZM107.718 194.576H113.073V199.723H107.718V194.576ZM173.692 194.576H239.665V199.723H173.692V194.576ZM164.267 86.191H239.665V91.3381H164.267V86.191ZM122.29 197.15C122.29 207.32 130.535 215.565 140.705 215.565V225.859C124.849 225.859 111.996 213.005 111.996 197.15H122.29ZM140.705 215.565C150.875 215.565 159.12 207.32 159.12 197.15H169.414C169.414 213.005 156.561 225.859 140.705 225.859V215.565ZM159.12 197.15C159.12 186.979 150.875 178.735 140.705 178.735V168.441C156.561 168.441 169.414 181.294 169.414 197.15H159.12ZM140.705 178.735C130.535 178.735 122.29 186.979 122.29 197.15H111.996C111.996 181.294 124.849 168.441 140.705 168.441V178.735Z" fill="#03A168" mask="url(#path-2-outside-1)"/>
<mask id="path-4-outside-2" maskUnits="userSpaceOnUse" x="183.973" y="85.7645" width="147" height="141" fill="black">
<rect fill="white" x="183.973" y="85.7645" width="147" height="141"/>
<path d="M309.495 197.15C309.495 210.163 298.946 220.712 285.933 220.712C272.92 220.712 262.371 210.163 262.371 197.15C262.371 184.137 272.92 173.588 285.933 173.588C298.946 173.588 309.495 184.137 309.495 197.15Z"/>
</mask>
<path d="M276.508 102.902L274.206 104.053L274.206 104.053L276.508 102.902ZM290.645 131.176L288.343 132.327C288.373 132.386 288.405 132.444 288.439 132.5L290.645 131.176ZM318.92 197.15L318.92 194.576H318.92V197.15ZM313.565 194.576C312.143 194.576 310.991 195.728 310.991 197.15C310.991 198.571 312.143 199.723 313.565 199.723V194.576ZM252.946 199.723C254.367 199.723 255.52 198.571 255.52 197.15C255.52 195.728 254.367 194.576 252.946 194.576V199.723ZM186.973 194.576C185.551 194.576 184.399 195.728 184.399 197.15C184.399 198.571 185.551 199.723 186.973 199.723V194.576ZM262.371 91.3381C264.813 91.3381 266.746 92.4535 268.636 94.6738C270.605 96.9862 272.294 100.228 274.206 104.053L278.81 101.751C276.952 98.0359 275 94.2088 272.556 91.3375C270.033 88.3742 266.783 86.191 262.371 86.191V91.3381ZM274.206 104.053L288.343 132.327L292.947 130.025L278.81 101.751L274.206 104.053ZM290.645 131.176C288.439 132.5 288.44 132.502 288.441 132.504C288.441 132.505 288.442 132.507 288.443 132.508C288.445 132.511 288.447 132.513 288.448 132.516C288.452 132.522 288.455 132.528 288.459 132.534C288.467 132.547 288.475 132.56 288.485 132.575C288.504 132.604 288.526 132.638 288.552 132.676C288.603 132.752 288.669 132.844 288.751 132.95C288.915 133.163 289.142 133.43 289.444 133.732C290.05 134.338 290.947 135.073 292.223 135.782C294.785 137.205 298.763 138.462 304.782 138.462V133.315C299.492 133.315 296.402 132.216 294.723 131.283C293.878 130.813 293.361 130.37 293.084 130.093C292.944 129.953 292.861 129.852 292.827 129.807C292.809 129.784 292.803 129.775 292.808 129.782C292.81 129.785 292.815 129.793 292.823 129.804C292.826 129.81 292.831 129.817 292.836 129.825C292.838 129.829 292.841 129.833 292.843 129.838C292.845 129.84 292.846 129.842 292.848 129.845C292.848 129.846 292.849 129.848 292.85 129.848C292.851 129.85 292.852 129.852 290.645 131.176ZM304.782 138.462C308.397 138.462 313.811 139.346 318.224 141.888C322.509 144.357 325.771 148.303 325.771 154.738H330.918C330.918 146.093 326.325 140.615 320.793 137.428C315.389 134.315 309.022 133.315 304.782 133.315V138.462ZM325.771 154.738V187.725H330.918V154.738H325.771ZM325.771 187.725C325.771 189.085 324.979 190.825 323.499 192.304C322.019 193.784 320.28 194.576 318.92 194.576L318.92 199.723C322.057 199.723 325.031 198.052 327.139 195.944C329.247 193.836 330.918 190.863 330.918 187.725H325.771ZM318.92 194.576H313.565V199.723H318.92V194.576ZM252.946 194.576H186.973V199.723H252.946V194.576ZM262.371 86.191H186.973V91.3381H262.371V86.191ZM304.348 197.15C304.348 207.32 296.103 215.565 285.933 215.565V225.859C301.788 225.859 314.642 213.005 314.642 197.15H304.348ZM285.933 215.565C275.763 215.565 267.518 207.32 267.518 197.15H257.224C257.224 213.005 270.077 225.859 285.933 225.859V215.565ZM267.518 197.15C267.518 186.979 275.763 178.735 285.933 178.735V168.441C270.077 168.441 257.224 181.294 257.224 197.15H267.518ZM285.933 178.735C296.103 178.735 304.348 186.979 304.348 197.15H314.642C314.642 181.294 301.788 168.441 285.933 168.441V178.735Z" fill="#03A168" mask="url(#path-4-outside-2)"/>
<path d="M259.929 104.206H220.594C220.026 104.206 219.565 104.667 219.565 105.235V142.589C219.565 143.158 220.026 143.619 220.594 143.619H279.353C280.126 143.619 280.623 142.8 280.266 142.114L260.842 104.76C260.665 104.42 260.313 104.206 259.929 104.206Z" stroke="#03A168" stroke-width="5.14705"/>
<path d="M168.68 104.206H208.014C208.583 104.206 209.044 104.667 209.044 105.235V142.589C209.044 143.158 208.583 143.619 208.014 143.619H149.255C148.483 143.619 147.986 142.8 148.342 142.114L167.766 104.76C167.943 104.42 168.295 104.206 168.68 104.206Z" stroke="#03A168" stroke-width="5.14705"/>
</svg>
