<svg width="424" height="302" viewBox="0 0 424 302" fill="none" xmlns="http://www.w3.org/2000/svg">
<rect x="0.471313" width="423.494" height="302" rx="27.7701" fill="#EDEBFF"/>
<path d="M144.098 188.572C143.309 189.474 143.401 190.845 144.302 191.634C145.204 192.423 146.575 192.331 147.364 191.43L175.355 159.44C179.122 161.601 186.367 168.935 189.246 186.207C189.42 187.253 190.325 188.02 191.386 188.02H228.74C229.788 188.02 230.687 187.27 230.874 186.239C232.196 178.967 236.4 167.939 244.67 158.769C247.792 155.307 251.496 152.106 255.853 149.469C255.867 149.496 255.881 149.523 255.896 149.55L276.648 186.904C277.23 187.952 278.551 188.329 279.598 187.747C280.646 187.165 281.023 185.844 280.441 184.797L259.689 147.443C259.68 147.427 259.671 147.411 259.662 147.395C266.049 144.29 273.667 142.365 282.695 142.365C283.893 142.365 284.865 141.394 284.865 140.196C284.865 125.829 276.256 95.1913 241.616 88.2633C240.826 88.1053 240.014 88.3981 239.506 89.0238C238.998 89.6494 238.879 90.5048 239.197 91.2454C240.889 95.1944 242.999 101.063 244.415 107.007L225.626 96.7858C224.573 96.2132 223.256 96.6023 222.683 97.6549C222.111 98.7074 222.5 100.025 223.552 100.597L245.505 112.539C245.953 115.521 246.115 118.295 245.884 120.645C245.696 122.557 245.262 124.042 244.63 125.127C239.423 123.201 231.705 121.707 223.576 122.793C214.947 123.945 205.848 128.016 198.925 137.497C192.519 134.757 182.854 131.184 172.737 128.55C161.798 125.703 149.972 123.854 141.155 125.617C141.121 125.624 141.088 125.631 141.054 125.64C138.231 126.346 133.799 127.612 129.632 129.13C127.549 129.889 125.497 130.724 123.731 131.598C122.012 132.449 120.383 133.422 119.294 134.511C118.888 134.918 118.659 135.47 118.659 136.045V148.497C118.659 149.165 118.967 149.796 119.493 150.207C120.02 150.618 120.707 150.763 121.355 150.601C124.083 149.919 128.604 148.892 133.257 148.036C137.952 147.173 142.625 146.516 145.731 146.516C152.879 146.516 160.231 149.875 171.515 157.239L144.098 188.572ZM256.898 174.059C257.609 173.094 257.403 171.736 256.438 171.025C255.473 170.315 254.115 170.521 253.405 171.485C249.383 176.946 247.248 183.568 247.324 190.35C247.4 197.132 249.682 203.705 253.825 209.074C257.968 214.444 263.747 218.318 270.288 220.112C276.829 221.905 283.776 221.52 290.078 219.015C296.381 216.51 301.696 212.02 305.22 206.226C308.745 200.431 310.287 193.647 309.613 186.898C308.939 180.149 306.085 173.804 301.485 168.821C296.884 163.838 290.785 160.488 284.112 159.279C282.933 159.065 281.804 159.848 281.59 161.027C281.377 162.206 282.159 163.335 283.338 163.548C289.084 164.59 294.335 167.474 298.297 171.764C302.258 176.055 304.715 181.518 305.295 187.329C305.875 193.14 304.548 198.982 301.513 203.971C298.479 208.96 293.902 212.826 288.475 214.983C283.049 217.14 277.067 217.472 271.435 215.927C265.804 214.383 260.828 211.047 257.261 206.424C253.693 201.8 251.728 196.141 251.663 190.302C251.598 184.462 253.435 178.761 256.898 174.059ZM150.022 163.462C151.205 163.653 152.319 162.849 152.51 161.667C152.701 160.484 151.897 159.37 150.714 159.179C144.019 158.096 137.153 159.223 131.155 162.39C125.157 165.556 120.354 170.589 117.47 176.728C114.587 182.867 113.781 189.778 115.175 196.415C116.568 203.053 120.085 209.057 125.193 213.518C130.302 217.979 136.724 220.656 143.489 221.143C150.254 221.63 156.993 219.901 162.688 216.217C168.383 212.534 172.724 207.096 175.054 200.726C177.383 194.357 177.576 187.402 175.602 180.913C175.253 179.767 174.041 179.12 172.895 179.469C171.748 179.818 171.102 181.03 171.451 182.176C173.15 187.763 172.985 193.751 170.979 199.236C168.972 204.72 165.235 209.402 160.332 212.574C155.428 215.746 149.625 217.234 143.801 216.815C137.976 216.396 132.446 214.091 128.048 210.25C123.649 206.408 120.621 201.239 119.421 195.524C118.221 189.809 118.915 183.858 121.398 178.573C123.88 173.287 128.017 168.953 133.181 166.227C138.345 163.501 144.257 162.53 150.022 163.462Z" stroke="#7A6FE9" stroke-width="4.33908" stroke-linecap="round" stroke-linejoin="round"/>
</svg>
