<svg width="172" height="486" viewBox="0 0 172 486" fill="none" xmlns="http://www.w3.org/2000/svg">
<path d="M116.109 39.8906C102.276 38.0572 70.0089 35.9906 51.6089 42.3906M116.109 39.8906C117.942 40.2239 121.609 42.2906 121.609 47.8906C126.942 74.3906 137.209 129.391 135.609 137.391M116.109 39.8906C130.06 41.0067 140.371 44.545 147.695 48.665M51.6089 42.3906C46.1089 71.8906 35.8089 132.591 38.6089 139.391M51.6089 42.3906C44.5828 43.4238 32.7397 45.6741 23.6089 48.665M23.6089 48.665C18.0114 50.4985 13.4331 52.6103 11.6089 54.8906M23.6089 48.665C20.2756 69.2402 14.3089 118.291 17.1089 149.891V263.891C16.6089 291.391 16.6089 348.191 20.6089 355.391C20.6089 363.057 22.5089 380.391 30.1089 388.391C46.1089 399.057 86.1089 416.391 118.109 400.391C125.109 398.391 140.109 392.691 144.109 385.891C147.276 381.057 153.909 361.091 155.109 319.891V153.891C155 120.907 153.364 53.6845 147.695 48.665M162.109 62.3906C160.593 58.9134 156.12 53.4043 147.695 48.665M154.609 151.391C148.609 171.224 136.609 214.191 136.609 227.391C133.776 245.391 128.709 292.291 131.109 335.891C132.609 346.891 136.709 372.691 141.109 387.891M150.609 360.391C144.109 346.213 132.209 305.766 136.609 257.391C139.442 233.557 147.009 183.691 154.609 174.891M17.6089 151.391C23.6089 171.224 35.6089 214.191 35.6089 227.391C38.4423 245.391 43.5089 292.291 41.1089 335.891M41.1089 335.891C39.6089 346.891 35.5089 372.691 31.1089 387.891M41.1089 335.891C49.4423 339.891 65.3089 345.191 86.1089 344.391C97.2756 344.057 116.709 343.391 131.109 335.391M21.6089 360.391C28.1089 346.213 40.009 305.766 35.6089 257.391C32.7756 233.557 25.209 183.691 17.6089 174.891M35.1089 216.391C43.4422 212.391 65.3089 204.591 86.1089 205.391C97.2756 205.724 123.209 208.391 137.609 216.391M6.10889 410.391C8.94222 419.557 20.7089 438.491 45.1089 440.891C59.4422 443.391 94.0089 446.891 117.609 440.891C147.109 433.391 153.109 434.391 164.609 412.891M9.10889 421.891C10.6089 427.724 18.7089 440.491 39.1089 444.891C64.6089 450.391 80.1089 451.391 90.1089 450.391C100.109 449.391 129.109 447.891 139.609 442.891C150.109 437.891 161.109 426.391 163.109 419.891M30.6089 388.891L29.6089 435.891M142.109 388.891V434.391M136.609 265.391L154.609 259.891M135.609 273.891L154.609 266.891M35.609 265.391L17.109 259.391M36.109 273.391L17.109 266.391M5.10889 74.8906C6.94222 63.5572 14.8089 40.0906 31.6089 36.8906C39.7756 33.5572 61.7089 27.3906 84.1089 29.3906C104.442 29.0572 146.709 31.6906 153.109 44.8906C157.942 50.5572 167.509 66.9906 167.109 87.3906V395.391C166.442 411.891 160.909 445.291 144.109 446.891C134.609 450.724 108.109 457.991 78.1089 456.391C59.2756 456.557 20.0089 452.591 13.6089 435.391C10.4422 429.557 4.10889 412.091 4.10889 388.891V93.3906L5.10889 74.8906ZM17.6089 150.891C27.1089 143.557 54.3089 128.591 87.1089 127.391C99.4422 126.724 130.309 130.491 155.109 150.891C147.109 147.557 128.809 140.391 119.609 138.391C113.442 136.557 98.3089 133.191 87.1089 134.391C73.1089 135.891 53.1089 132.391 22.1089 150.891H17.6089ZM16.109 174.391C11.4423 177.224 1.90899 183.991 1.10899 188.391C0.308992 192.791 4.10899 190.891 6.10899 189.391L11.1089 186.891L13.6089 185.391L15.1089 184.391H16.6089V174.391H16.109ZM156.609 174.891L160.109 176.391L162.109 177.891L164.609 179.391L166.109 180.391C168.442 181.724 172.409 185.491 169.609 189.891H168.109L165.609 187.891L162.109 185.391L159.609 183.391L157.609 182.391H155.609V174.891H156.609Z" stroke="#00977D"/>
<circle opacity="0.3" cx="155.5" cy="116.5" r="13.5" fill="#6153E3"/>
<circle cx="155.5" cy="116.5" r="5.5" fill="#6153E3"/>
<circle opacity="0.3" cx="155.5" cy="242.5" r="13.5" fill="#6153E3"/>
<circle cx="155.5" cy="242.5" r="5.5" fill="#6153E3"/>
<path d="M62.2967 17C62.1767 17 62.0747 16.958 61.9907 16.874C61.9067 16.79 61.8647 16.688 61.8647 16.568V4.85C61.8647 4.718 61.9007 4.61 61.9727 4.526C62.0567 4.442 62.1647 4.4 62.2967 4.4H70.1087C70.2407 4.4 70.3487 4.442 70.4327 4.526C70.5167 4.61 70.5587 4.718 70.5587 4.85V6.11C70.5587 6.242 70.5167 6.35 70.4327 6.434C70.3487 6.506 70.2407 6.542 70.1087 6.542H64.3307V9.962H69.7487C69.8807 9.962 69.9887 10.004 70.0727 10.088C70.1567 10.172 70.1987 10.28 70.1987 10.412V11.672C70.1987 11.804 70.1567 11.912 70.0727 11.996C69.9887 12.068 69.8807 12.104 69.7487 12.104H64.3307V16.568C64.3307 16.7 64.2887 16.808 64.2047 16.892C64.1207 16.964 64.0127 17 63.8807 17H62.2967ZM73.5804 17C73.4604 17 73.3584 16.958 73.2744 16.874C73.1904 16.79 73.1484 16.688 73.1484 16.568V8.09C73.1484 7.97 73.1904 7.868 73.2744 7.784C73.3584 7.688 73.4604 7.64 73.5804 7.64H75.0384C75.1704 7.64 75.2784 7.682 75.3624 7.766C75.4464 7.85 75.4884 7.958 75.4884 8.09V8.828C75.7764 8.444 76.1364 8.15 76.5684 7.946C77.0124 7.742 77.5164 7.64 78.0804 7.64H78.8184C78.9504 7.64 79.0524 7.682 79.1244 7.766C79.2084 7.838 79.2504 7.94 79.2504 8.072V9.368C79.2504 9.488 79.2084 9.59 79.1244 9.674C79.0524 9.758 78.9504 9.8 78.8184 9.8H77.4144C76.8504 9.8 76.4064 9.962 76.0824 10.286C75.7584 10.61 75.5964 11.054 75.5964 11.618V16.568C75.5964 16.688 75.5544 16.79 75.4704 16.874C75.3864 16.958 75.2784 17 75.1464 17H73.5804ZM85.5712 17.18C84.1672 17.18 83.0812 16.82 82.3132 16.1C81.5452 15.368 81.1312 14.372 81.0712 13.112L81.0532 12.32L81.0712 11.528C81.1312 10.28 81.5512 9.29 82.3312 8.558C83.1112 7.826 84.1912 7.46 85.5712 7.46C86.9512 7.46 88.0312 7.826 88.8112 8.558C89.5912 9.29 90.0112 10.28 90.0712 11.528C90.0832 11.672 90.0892 11.936 90.0892 12.32C90.0892 12.704 90.0832 12.968 90.0712 13.112C90.0112 14.372 89.5972 15.368 88.8292 16.1C88.0612 16.82 86.9752 17.18 85.5712 17.18ZM85.5712 15.398C86.2072 15.398 86.6992 15.2 87.0472 14.804C87.3952 14.396 87.5872 13.802 87.6232 13.022C87.6352 12.902 87.6412 12.668 87.6412 12.32C87.6412 11.972 87.6352 11.738 87.6232 11.618C87.5872 10.838 87.3952 10.25 87.0472 9.854C86.6992 9.446 86.2072 9.242 85.5712 9.242C84.9352 9.242 84.4432 9.446 84.0952 9.854C83.7472 10.25 83.5552 10.838 83.5192 11.618L83.5012 12.32L83.5192 13.022C83.5552 13.802 83.7472 14.396 84.0952 14.804C84.4432 15.2 84.9352 15.398 85.5712 15.398ZM93.4155 17C93.2955 17 93.1935 16.958 93.1095 16.874C93.0255 16.79 92.9835 16.688 92.9835 16.568V8.072C92.9835 7.952 93.0255 7.85 93.1095 7.766C93.1935 7.682 93.2955 7.64 93.4155 7.64H94.8915C95.0115 7.64 95.1135 7.682 95.1975 7.766C95.2815 7.85 95.3235 7.952 95.3235 8.072V8.81C96.0315 7.91 97.0335 7.46 98.3295 7.46C99.4335 7.46 100.31 7.826 100.958 8.558C101.606 9.278 101.93 10.262 101.93 11.51V16.568C101.93 16.688 101.888 16.79 101.804 16.874C101.732 16.958 101.63 17 101.498 17H99.9135C99.7935 17 99.6915 16.958 99.6075 16.874C99.5235 16.79 99.4815 16.688 99.4815 16.568V11.618C99.4815 10.91 99.3075 10.364 98.9595 9.98C98.6235 9.584 98.1315 9.386 97.4835 9.386C96.8475 9.386 96.3435 9.584 95.9715 9.98C95.6115 10.376 95.4315 10.922 95.4315 11.618V16.568C95.4315 16.688 95.3895 16.79 95.3055 16.874C95.2335 16.958 95.1315 17 94.9995 17H93.4155ZM109.24 17C108.148 17 107.326 16.718 106.774 16.154C106.234 15.578 105.964 14.738 105.964 13.634V9.548H104.542C104.422 9.548 104.32 9.506 104.236 9.422C104.152 9.326 104.11 9.218 104.11 9.098V8.072C104.11 7.952 104.152 7.85 104.236 7.766C104.32 7.682 104.422 7.64 104.542 7.64H105.964V4.652C105.964 4.52 106.006 4.418 106.09 4.346C106.174 4.262 106.276 4.22 106.396 4.22H107.854C107.986 4.22 108.088 4.262 108.16 4.346C108.244 4.418 108.286 4.52 108.286 4.652V7.64H110.536C110.668 7.64 110.77 7.682 110.842 7.766C110.926 7.838 110.968 7.94 110.968 8.072V9.098C110.968 9.23 110.926 9.338 110.842 9.422C110.758 9.506 110.656 9.548 110.536 9.548H108.286V13.454C108.286 13.97 108.376 14.36 108.556 14.624C108.736 14.888 109.036 15.02 109.456 15.02H110.698C110.818 15.02 110.92 15.062 111.004 15.146C111.088 15.23 111.13 15.332 111.13 15.452V16.568C111.13 16.688 111.088 16.79 111.004 16.874C110.932 16.958 110.83 17 110.698 17H109.24Z" fill="black"/>
<path d="M67.3942 485C67.2742 485 67.1722 484.958 67.0882 484.874C67.0042 484.79 66.9622 484.688 66.9622 484.568V472.85C66.9622 472.718 66.9982 472.61 67.0702 472.526C67.1542 472.442 67.2622 472.4 67.3942 472.4H72.0562C73.5202 472.4 74.6662 472.742 75.4942 473.426C76.3342 474.11 76.7542 475.082 76.7542 476.342C76.7542 477.218 76.5382 477.956 76.1062 478.556C75.6862 479.144 75.0982 479.57 74.3422 479.834L76.9702 484.424C77.0062 484.496 77.0242 484.562 77.0242 484.622C77.0242 484.73 76.9822 484.82 76.8982 484.892C76.8262 484.964 76.7422 485 76.6462 485H75.0082C74.8162 485 74.6662 484.958 74.5582 484.874C74.4622 484.79 74.3722 484.67 74.2882 484.514L71.9662 480.248H69.4642V484.568C69.4642 484.688 69.4222 484.79 69.3382 484.874C69.2662 484.958 69.1642 485 69.0322 485H67.3942ZM72.0022 478.214C72.7222 478.214 73.2622 478.052 73.6222 477.728C73.9942 477.404 74.1802 476.936 74.1802 476.324C74.1802 475.712 73.9942 475.238 73.6222 474.902C73.2622 474.566 72.7222 474.398 72.0022 474.398H69.4642V478.214H72.0022ZM83.6841 485.18C82.3521 485.18 81.2901 484.796 80.4981 484.028C79.7181 483.248 79.3041 482.156 79.2561 480.752L79.2381 480.302L79.2561 479.852C79.3161 478.484 79.7361 477.41 80.5161 476.63C81.3081 475.85 82.3641 475.46 83.6841 475.46C85.1001 475.46 86.1921 475.892 86.9601 476.756C87.7401 477.62 88.1301 478.772 88.1301 480.212V480.59C88.1301 480.71 88.0881 480.812 88.0041 480.896C87.9201 480.98 87.8121 481.022 87.6801 481.022H81.7041V481.166C81.7281 481.826 81.9081 482.384 82.2441 482.84C82.5921 483.284 83.0661 483.506 83.6661 483.506C84.3741 483.506 84.9441 483.23 85.3761 482.678C85.4841 482.546 85.5681 482.462 85.6281 482.426C85.7001 482.39 85.8021 482.372 85.9341 482.372H87.4821C87.5901 482.372 87.6801 482.408 87.7521 482.48C87.8361 482.54 87.8781 482.618 87.8781 482.714C87.8781 483.002 87.7041 483.344 87.3561 483.74C87.0201 484.124 86.5341 484.46 85.8981 484.748C85.2621 485.036 84.5241 485.18 83.6841 485.18ZM85.6821 479.51V479.456C85.6821 478.748 85.5021 478.178 85.1421 477.746C84.7941 477.314 84.3081 477.098 83.6841 477.098C83.0601 477.098 82.5741 477.314 82.2261 477.746C81.8781 478.178 81.7041 478.748 81.7041 479.456V479.51H85.6821ZM93.6587 485.18C93.0467 485.18 92.4827 485.06 91.9667 484.82C91.4627 484.568 91.0607 484.232 90.7607 483.812C90.4727 483.392 90.3287 482.93 90.3287 482.426C90.3287 481.61 90.6587 480.95 91.3187 480.446C91.9787 479.942 92.8847 479.6 94.0367 479.42L96.5027 479.06V478.682C96.5027 478.154 96.3707 477.758 96.1067 477.494C95.8427 477.23 95.4167 477.098 94.8287 477.098C94.4327 477.098 94.1087 477.176 93.8567 477.332C93.6167 477.476 93.4247 477.62 93.2807 477.764C93.1367 477.92 93.0407 478.022 92.9927 478.07C92.9447 478.214 92.8547 478.286 92.7227 478.286H91.3367C91.2287 478.286 91.1327 478.25 91.0487 478.178C90.9767 478.106 90.9407 478.01 90.9407 477.89C90.9527 477.59 91.0967 477.248 91.3727 476.864C91.6607 476.48 92.0987 476.15 92.6867 475.874C93.2747 475.598 93.9947 475.46 94.8467 475.46C96.2627 475.46 97.2947 475.778 97.9427 476.414C98.5907 477.05 98.9147 477.884 98.9147 478.916V484.568C98.9147 484.688 98.8727 484.79 98.7887 484.874C98.7167 484.958 98.6147 485 98.4827 485H97.0247C96.9047 485 96.8027 484.958 96.7187 484.874C96.6347 484.79 96.5927 484.688 96.5927 484.568V483.866C96.3287 484.25 95.9507 484.568 95.4587 484.82C94.9787 485.06 94.3787 485.18 93.6587 485.18ZM94.2707 483.47C94.9307 483.47 95.4707 483.254 95.8907 482.822C96.3107 482.39 96.5207 481.76 96.5207 480.932V480.554L94.7207 480.842C94.0247 480.95 93.4967 481.124 93.1367 481.364C92.7887 481.604 92.6147 481.898 92.6147 482.246C92.6147 482.63 92.7767 482.93 93.1007 483.146C93.4247 483.362 93.8147 483.47 94.2707 483.47ZM102.556 485C102.436 485 102.334 484.958 102.25 484.874C102.166 484.79 102.124 484.688 102.124 484.568V476.09C102.124 475.97 102.166 475.868 102.25 475.784C102.334 475.688 102.436 475.64 102.556 475.64H104.014C104.146 475.64 104.254 475.682 104.338 475.766C104.422 475.85 104.464 475.958 104.464 476.09V476.828C104.752 476.444 105.112 476.15 105.544 475.946C105.988 475.742 106.492 475.64 107.056 475.64H107.794C107.926 475.64 108.028 475.682 108.1 475.766C108.184 475.838 108.226 475.94 108.226 476.072V477.368C108.226 477.488 108.184 477.59 108.1 477.674C108.028 477.758 107.926 477.8 107.794 477.8H106.39C105.826 477.8 105.382 477.962 105.058 478.286C104.734 478.61 104.572 479.054 104.572 479.618V484.568C104.572 484.688 104.53 484.79 104.446 484.874C104.362 484.958 104.254 485 104.122 485H102.556Z" fill="black"/>
</svg>
